<?xml version="1.0" standalone="no"?>
<!DOCTYPE svg PUBLIC "-//W3C//DTD SVG 20010904//EN"
 "http://www.w3.org/TR/2001/REC-SVG-20010904/DTD/svg10.dtd">
<svg version="1.0" xmlns="http://www.w3.org/2000/svg"
 width="708.000000pt" height="682.000000pt" viewBox="0 0 708.000000 682.000000"
 preserveAspectRatio="xMidYMid meet">
<metadata>
Created by potrace 1.16, written by Peter Selinger 2001-2019
</metadata>
<g transform="translate(0.000000,682.000000) scale(0.100000,-0.100000)"
fill="#000000" stroke="none">
<path d="M2215 6803 c-1025 -89 -1881 -812 -2131 -1799 -57 -228 -69 -330 -69
-604 0 -262 11 -360 62 -569 192 -796 795 -1450 1574 -1709 285 -95 521 -128
838 -119 275 8 476 44 731 132 141 49 381 167 514 255 l108 71 67 -63 c235
-225 2451 -2288 2480 -2310 86 -63 231 -93 340 -69 130 28 243 116 302 237 33
66 34 73 34 189 0 114 -2 123 -31 186 -19 40 -55 90 -90 126 -41 43 -2279
2133 -2492 2328 -10 9 -4 27 34 91 151 253 262 567 310 874 26 161 26 538 1
700 -55 360 -180 687 -375 981 -185 278 -397 491 -672 674 -408 272 -870 409
-1360 403 -74 -1 -153 -3 -175 -5z m370 -334 c474 -40 924 -246 1269 -579 533
-515 752 -1276 571 -1988 -92 -366 -284 -702 -551 -967 -385 -383 -916 -604
-1454 -605 -787 -1 -1521 457 -1865 1165 -219 450 -270 934 -151 1410 248 983
1179 1651 2181 1564z"/>
</g>
</svg>
